<svg xmlns="http://www.w3.org/2000/svg" viewBox="0 0 448 336" width="120" height="90">
    <!-- Oval Border (converted to path to be 100% compatible) -->
    <path d="M 224,18 A 210,150 0 1,0 224,318 A 210,150 0 1,0 224,18 Z" fill="none" stroke="#D2A237" stroke-width="10"/>
    
    <!-- Wheat Ear Stem -->
    <path d="M 100 260 C 90 200 95 150 120 100" fill="none" stroke="#D2A237" stroke-width="4" stroke-linecap="round"/>
    
    <!-- Wheat Grains -->
    <!-- Left side grains -->
    <path d="M 92 215 C 80 205 75 190 85 180 C 95 170 100 185 92 215 Z" fill="#D2A237"/>
    <path d="M 98 185 C 85 175 80 160 90 150 C 100 140 105 155 98 185 Z" fill="#D2A237"/>
    <path d="M 104 155 C 92 145 88 130 98 120 C 108 110 112 125 104 155 Z" fill="#D2A237"/>
    <path d="M 112 125 C 100 115 98 100 108 90 C 118 80 122 95 112 125 Z" fill="#D2A237"/>
    
    <!-- Right side grains -->
    <path d="M 110 225 C 122 215 125 200 115 190 C 105 180 102 195 110 225 Z" fill="#D2A237"/>
    <path d="M 116 195 C 128 185 130 170 120 160 C 110 150 108 165 116 195 Z" fill="#D2A237"/>
    <path d="M 122 165 C 134 155 138 140 128 130 C 118 120 114 135 122 165 Z" fill="#D2A237"/>
    <path d="M 130 135 C 142 125 145 110 135 100 C 125 90 122 105 130 135 Z" fill="#D2A237"/>
    
    <!-- Top grain -->
    <path d="M 120 100 C 125 85 120 70 115 75 C 110 80 115 95 120 100 Z" fill="#D2A237"/>

    <!-- Red "K" (converted to path) -->
    <path d="M 165 100 L 195 100 L 195 160 L 235 100 L 270 100 L 208 180 L 275 250 L 240 250 L 195 192 L 195 250 L 165 250 Z" fill="#EC1D24"/>
    
    <!-- Red Arabic "كنز" (converted to paths) -->
    <path d="M 235 55 C 235 55 245 55 245 65 L 245 105 C 245 115 250 120 260 120 L 290 120 C 295 120 300 115 300 110 L 300 105 L 305 105 L 305 112 C 305 122 295 127 285 127 L 255 127 C 240 127 235 117 235 102 L 235 65 Z" fill="#EC1D24"/>
    <path d="M 260 70 L 285 85 L 280 90 L 255 75 Z" fill="#EC1D24"/>
    <path d="M 310 110 C 310 125 320 135 335 135 C 350 135 365 120 375 100 L 382 103 C 370 128 352 145 335 145 C 312 145 300 130 300 110 Z" fill="#EC1D24"/>
    <!-- Nun dot -->
    <path d="M 330 90 A 5 5 0 1 1 340 90 A 5 5 0 1 1 330 90 Z" fill="#EC1D24"/>
    <!-- Zay dot -->
    <path d="M 365 80 A 5 5 0 1 1 375 80 A 5 5 0 1 1 365 80 Z" fill="#EC1D24"/>
    
    <!-- Black "enz" (converted to paths) -->
    <!-- "e" -->
    <path d="M 305 180 C 290 180 280 190 280 205 C 280 220 290 230 305 230 C 315 230 322 225 325 218 L 315 215 C 313 218 310 220 305 220 C 298 220 292 215 290 208 L 327 208 C 327 195 320 180 305 180 Z M 290 200 C 292 193 298 188 305 188 C 312 188 317 193 317 200 Z" fill="#222"/>
    <!-- "n" -->
    <path d="M 335 182 L 345 182 L 345 190 C 350 183 358 180 365 180 C 375 180 380 186 380 198 L 380 230 L 370 230 L 370 200 C 370 193 367 190 360 190 C 352 190 345 195 345 202 L 345 230 L 335 230 Z" fill="#222"/>
    <!-- "z" -->
    <path d="M 390 182 L 420 182 L 420 190 L 398 220 L 420 220 L 420 230 L 390 230 L 390 222 L 412 192 L 390 192 Z" fill="#222"/>
</svg>
